<svg version="1.0" xmlns="http://www.w3.org/2000/svg"
 width="230.000000pt" height="231.000000pt" viewBox="0 0 230.000000 231.000000"
 preserveAspectRatio="xMidYMid meet">

<g transform="translate(0.000000,231.000000) scale(0.100000,-0.100000)"
fill="#000000" stroke="none">
<path d="M577 2304 c-6 -7 -87 -12 -189 -13 -45 -1 -62 -6 -77 -22 -71 -76
145 -135 281 -76 40 17 51 50 27 76 -11 11 -24 21 -30 21 -6 0 -7 5 -4 10 7
11 2 13 -8 4z"/>
<path d="M786 2289 c18 -20 18 -21 -1 -35 -22 -16 -39 -19 -30 -4 4 6 -5 10
-19 10 -14 0 -26 5 -26 11 0 5 -4 7 -10 4 -5 -3 -10 -2 -10 2 0 5 -9 9 -21 10
-20 2 -20 1 -5 -22 14 -21 14 -28 4 -46 -15 -24 -77 -58 -110 -60 -17 -1 -19
-2 -5 -6 9 -2 14 -9 11 -15 -8 -12 27 -3 69 19 24 12 27 12 27 -2 0 -9 -4 -14
-8 -11 -5 3 -35 -8 -68 -24 -39 -20 -52 -30 -36 -30 18 0 22 -6 22 -30 0 -22
-6 -33 -22 -40 -22 -8 -22 -9 5 -9 42 -1 28 -25 -19 -32 -27 -4 -31 -7 -13 -8
43 -2 50 -20 34 -81 -17 -66 -29 -78 -83 -86 l-42 -6 -1 84 c-1 45 -1 86 0 91
0 4 -8 7 -20 7 -19 0 -20 -5 -17 -95 3 -83 1 -95 -14 -99 -10 -2 -18 0 -18 5
0 5 6 9 13 9 9 0 9 2 -1 8 -9 6 -13 49 -13 159 l0 150 -47 21 c-39 17 -42 19
-16 15 45 -7 50 11 9 30 -19 9 -35 21 -35 27 0 18 -19 11 -48 -17 -26 -26 -27
-32 -22 -93 l5 -65 23 36 c12 20 22 41 22 47 0 5 7 13 16 16 11 4 4 -16 -22
-61 -20 -38 -40 -70 -44 -73 -9 -6 -21 -127 -24 -241 -2 -69 -7 -93 -25 -122
-12 -20 -33 -64 -46 -98 -28 -71 -26 -80 35 -132 35 -30 53 -36 143 -51 56
-10 113 -21 127 -24 l25 -5 -26 -8 c-25 -6 -79 1 -157 21 -17 4 -32 5 -32 0 0
-11 -60 -34 -83 -33 -12 1 -17 -3 -13 -13 3 -8 -1 -14 -9 -14 -8 0 -15 5 -15
11 0 5 -4 7 -10 4 -5 -3 -10 -16 -10 -27 0 -11 -8 -27 -18 -35 -13 -11 -14
-13 -2 -12 8 1 28 -3 43 -9 40 -17 77 -15 77 3 0 9 6 12 15 9 9 -4 15 -19 15
-35 0 -16 4 -29 9 -29 4 0 24 -11 44 -24 25 -17 38 -21 46 -13 8 8 11 -7 11
-54 0 -56 -3 -69 -23 -88 -21 -19 -28 -20 -53 -10 -16 6 -23 13 -16 16 6 3 12
12 12 20 0 9 -6 13 -15 9 -9 -3 -45 6 -80 21 -65 26 -65 27 -66 67 l-1 41 -9
-33 c-13 -43 -5 -52 76 -87 36 -15 64 -29 62 -32 -2 -2 -15 1 -28 6 -23 8 -25
7 -21 -23 2 -21 -2 -37 -12 -45 -11 -9 -16 -30 -16 -65 0 -46 3 -53 30 -68 18
-10 30 -25 30 -37 0 -19 26 -41 49 -41 6 0 11 7 11 15 0 19 0 19 65 -9 35 -16
55 -31 55 -42 0 -11 -5 -14 -16 -10 -30 12 -64 18 -64 12 0 -10 55 -56 67 -56
6 0 18 -6 25 -13 7 -6 22 -14 33 -15 11 -2 23 -8 26 -14 3 -5 9 -9 13 -8 7 2
56 -15 93 -32 12 -6 28 -8 36 -5 7 3 20 1 28 -5 11 -8 11 -9 -3 -4 -14 4 -16
0 -12 -23 4 -16 1 -32 -5 -35 -6 -4 -9 -12 -6 -17 4 -5 -2 -12 -12 -16 -10 -4
-24 -14 -31 -22 -40 -49 -45 -65 -44 -121 1 -46 7 -63 28 -87 14 -16 49 -70
78 -119 l52 -89 510 -3 511 -3 1 40 c2 40 -17 71 -42 71 -21 0 -46 34 -46 62
0 28 23 60 84 120 32 31 36 39 20 35 -18 -4 -23 1 -28 32 -3 20 -6 52 -6 71 0
20 -7 46 -16 59 -10 13 -18 36 -20 51 -3 23 2 30 36 45 22 10 37 22 34 26 -3
5 0 9 6 9 6 0 14 10 19 23 7 17 18 23 47 25 52 4 113 33 149 71 l30 32 -60
-30 c-33 -17 -84 -34 -112 -37 -49 -6 -53 -5 -53 15 0 17 6 21 33 21 57 0 108
21 152 61 45 42 65 92 65 167 0 35 3 40 23 40 39 1 141 28 144 39 6 17 -19 31
-69 38 -46 7 -48 6 -48 -16 0 -19 -3 -17 -19 15 -14 26 -17 44 -11 59 4 12 13
41 19 65 7 24 28 59 50 82 34 36 42 40 89 40 31 0 52 -5 55 -12 3 -8 6 -6 6 4
1 11 -17 27 -48 43 -27 13 -52 33 -56 44 -3 11 -28 30 -55 42 -28 12 -50 26
-50 29 0 4 -44 28 -97 54 -54 26 -104 51 -112 55 -19 9 -27 33 -11 29 7 -2 15
3 17 10 3 6 0 12 -6 12 -18 0 -14 127 4 134 19 7 19 26 0 26 -8 0 -14 3 -13 8
1 4 -4 18 -11 31 -7 12 -11 32 -8 42 7 25 1 24 -35 -6 -29 -25 -32 -25 -55 -9
-20 13 -30 14 -50 5 -46 -21 -51 -15 -63 67 l-12 77 -87 84 c-103 100 -92 104
18 6 74 -66 78 -73 89 -128 13 -71 27 -90 59 -82 13 3 33 -1 48 -11 23 -15 26
-14 60 13 19 15 35 34 35 41 0 36 -65 162 -109 212 l-49 55 -153 0 c-125 0
-161 -4 -193 -18 -49 -22 -60 -13 -62 51 -1 26 -3 49 -4 52 -1 3 -2 8 -1 13 2
14 -29 7 -84 -19 l-55 -27 -25 27 c-23 25 -27 26 -146 26 l-122 0 19 -21z
m154 -73 c0 -6 -7 -1 -15 10 -8 10 -15 23 -15 28 0 6 7 1 15 -10 8 -10 15 -23
15 -28z m140 20 c0 -2 -7 -7 -16 -10 -8 -3 -12 -2 -9 4 6 10 25 14 25 6z
m-216 -85 c22 -43 36 -83 35 -103 l-1 -33 -7 35 c-4 19 -22 63 -39 97 -18 34
-32 65 -32 68 0 15 12 -2 44 -64z m176 65 c0 -2 -15 -9 -32 -15 -30 -10 -31
-9 -14 4 18 14 46 20 46 11z m-70 -56 c11 -22 16 -40 10 -40 -5 0 -10 2 -10 4
0 2 -7 20 -15 40 -20 48 -10 46 15 -4z m-267 -90 c19 -33 32 -62 27 -65 -9 -6
-22 9 -44 53 -10 18 -26 42 -37 53 -18 18 -18 19 -1 19 12 0 32 -21 55 -60z
m-370 12 c-15 -38 -65 -112 -74 -106 -10 6 -2 24 38 87 13 21 20 43 16 50 -4
8 -1 8 9 -1 10 -8 14 -20 11 -30z m337 -104 c-1 -16 -39 33 -40 50 0 6 -4 12
-9 12 -5 0 -11 8 -14 18 -2 9 -8 26 -12 37 -4 11 12 -8 34 -42 23 -34 41 -68
41 -75z m87 100 c-3 -8 -6 -5 -6 6 -1 11 2 17 5 13 3 -3 4 -12 1 -19z m677
-128 c19 -66 20 -100 5 -100 -6 0 -8 8 -4 19 8 25 -37 77 -80 93 -32 11 -35
15 -34 53 1 22 0 45 -1 50 -6 26 4 23 49 -16 40 -35 52 -53 65 -99z m-201 51
c29 -27 74 -59 100 -71 26 -12 53 -32 59 -44 6 -11 10 -21 9 -21 -3 0 6 -41
15 -77 5 -16 7 -16 36 2 33 20 48 18 48 -5 0 -17 -77 -42 -89 -29 -5 5 -18 38
-29 74 -19 62 -22 66 -74 93 -54 27 -163 127 -140 127 7 0 37 -22 65 -49z
m-902 -54 c-13 -13 -15 1 -4 30 7 17 8 17 11 -1 2 -10 -1 -23 -7 -29z m273 17
c3 -8 2 -12 -4 -9 -6 3 -10 10 -10 16 0 14 7 11 14 -7z m481 -24 c10 -11 16
-20 13 -20 -3 0 -13 9 -23 20 -10 11 -16 20 -13 20 3 0 13 -9 23 -20z m-52
-109 c-3 -31 -7 -58 -9 -60 -2 -2 -19 0 -38 3 -22 4 -33 11 -30 19 2 7 -14 30
-36 52 -30 29 -37 42 -29 52 7 7 17 13 24 13 7 0 25 7 41 15 27 14 30 13 55
-11 25 -24 27 -31 22 -83z m-148 12 c33 -31 51 -51 40 -45 -20 10 -113 102
-105 102 3 0 32 -25 65 -57z m475 37 c0 -5 -2 -10 -4 -10 -3 0 -8 5 -11 10 -3
6 -1 10 4 10 6 0 11 -4 11 -10z m-100 -25 c-7 -8 -20 -15 -29 -15 -11 0 -8 5
9 14 33 19 35 19 20 1z m-503 -69 c34 -30 81 -61 105 -71 43 -16 44 -18 61
-84 23 -86 17 -115 -23 -118 -35 -3 -40 12 -9 22 19 6 21 12 15 57 -9 63 -27
88 -91 123 -46 25 -149 125 -129 125 5 0 37 -24 71 -54z m533 30 c-8 -7 -28
-16 -45 -19 -29 -6 -29 -6 -5 4 14 6 32 15 40 19 23 13 26 12 10 -4z m-167
-13 c-7 -2 -21 -2 -30 0 -10 3 -4 5 12 5 17 0 24 -2 18 -5z m75 -10 c-10 -2
-26 -2 -35 0 -10 3 -2 5 17 5 19 0 27 -2 18 -5z m-623 -61 c28 -6 67 -14 88
-18 34 -6 63 -24 38 -24 -6 0 -18 -14 -26 -31 -14 -27 -18 -29 -33 -17 -15 12
-16 11 -4 -4 12 -14 19 -44 21 -85 1 -7 26 -15 62 -19 103 -12 145 -55 156
-159 7 -66 0 -93 -32 -131 -28 -32 -30 -45 -14 -61 9 -9 6 -11 -12 -7 -18 4
-15 0 13 -17 20 -12 41 -33 47 -46 6 -13 11 -73 11 -133 0 -107 0 -109 -29
-138 -38 -38 -63 -42 -241 -42 -106 0 -150 4 -158 13 -6 7 -11 143 -14 370
l-3 357 103 0 c56 0 102 4 102 9 0 30 -39 86 -104 151 -42 41 -76 79 -76 84 0
5 12 -2 28 -15 15 -14 50 -31 77 -37z m750 38 c3 -5 -1 -25 -10 -45 -15 -29
-19 -32 -31 -20 -8 7 -14 22 -14 32 0 33 40 57 55 33z m411 -6 c-3 -9 -6 -50
-7 -92 0 -42 -3 -70 -6 -62 -2 8 -6 21 -9 28 -3 10 -9 10 -24 2 -19 -10 -20
-8 -20 39 0 30 -6 55 -14 63 -11 11 -7 15 28 24 58 16 59 16 52 -2z m-702 -20
c3 -8 2 -12 -4 -9 -6 3 -10 10 -10 16 0 14 7 11 14 -7z m502 -39 c16 -8 27
-15 24 -16 -23 -6 -61 -7 -56 -2 3 3 1 12 -5 20 -15 18 1 17 37 -2z m89 -99
c8 -13 13 -30 10 -38 -6 -16 -133 -78 -159 -78 -30 0 -46 -13 -46 -37 0 -18 4
-24 15 -19 12 4 14 0 9 -22 -4 -15 -11 -32 -16 -39 -6 -7 -7 -30 -3 -52 4 -22
3 -46 -1 -52 -13 -22 -23 21 -23 107 -1 86 -9 100 -48 88 -15 -5 -15 -3 2 11
19 16 78 45 100 49 6 1 38 17 73 35 52 26 62 35 57 51 -9 28 11 25 30 -4z
m-216 -37 c-19 -10 -42 -18 -51 -19 -20 0 -37 -26 -31 -49 2 -9 26 -164 52
-346 34 -228 46 -334 39 -342 -13 -17 -130 -17 -146 -1 -7 7 -12 27 -12 44 0
33 -37 74 -67 74 -25 0 -63 -47 -63 -78 0 -44 -19 -53 -97 -50 l-68 3 -3 39
c-2 21 4 80 13 130 26 146 74 537 68 552 -4 12 18 14 126 14 121 0 134 2 185
27 30 15 52 31 49 36 -3 5 5 3 18 -3 l23 -13 -35 -18z m110 -10 c-21 -13 -49
-11 -49 4 0 9 10 12 31 9 22 -3 27 -7 18 -13z m328 -34 c75 -32 96 -66 108
-182 8 -80 -11 -103 -83 -103 -75 0 -92 18 -92 96 0 36 -5 74 -10 85 -12 22
-62 26 -77 7 -13 -16 -24 -454 -13 -488 6 -18 8 -5 9 46 1 86 -4 84 162 84
l116 0 -13 -76 c-18 -104 -20 -108 -64 -148 -111 -100 -327 -64 -372 62 -14
40 -19 461 -6 517 6 25 4 23 -9 -7 -9 -21 -20 -38 -24 -38 -14 0 -10 60 4 75
18 18 135 76 172 86 43 12 147 3 192 -16z m-447 -94 c0 -12 -29 -35 -36 -28
-11 10 5 37 21 37 8 0 15 -4 15 -9z m0 -134 c0 -34 -5 -69 -10 -77 -8 -12 -10
-12 -11 5 0 11 -4 44 -8 72 -4 32 -3 57 2 62 19 19 27 0 27 -62z m666 13 c-49
-45 -51 -46 -60 -24 -3 8 -2 13 3 10 4 -3 21 8 36 24 16 17 37 30 47 30 13 0
6 -11 -26 -40z m-589 -17 c-3 -10 -5 -4 -5 12 0 17 2 24 5 18 2 -7 2 -21 0
-30z m-1107 -2 c0 -8 -81 -41 -102 -41 -37 0 -25 19 25 37 48 19 77 20 77 4z
m-120 -57 c0 -12 -4 -12 -19 -2 -11 7 -18 15 -15 20 7 11 34 -3 34 -18z m1230
-22 c0 -10 -12 -22 -31 -29 l-30 -12 28 28 c35 35 33 35 33 13z m250 -51 c0
-27 3 -57 7 -67 4 -11 3 -15 -5 -10 -6 3 -13 2 -17 -4 -16 -25 -25 -5 -25 53
0 66 4 77 27 77 9 0 13 -15 13 -49z m-1536 -307 c20 -19 20 -33 1 -40 -20 -8
-45 13 -45 37 0 23 23 25 44 3z m729 -50 c10 -3 14 -14 11 -30 -3 -16 0 -24 9
-24 8 0 22 -9 33 -21 18 -20 18 -20 -21 -17 -28 2 -43 9 -50 24 -10 20 -13 21
-35 8 -44 -24 -45 -15 -5 26 21 22 40 40 41 40 1 0 9 -3 17 -6z m-141 -68 c15
0 23 -5 18 -10 -11 -11 -77 1 -86 16 -5 8 0 9 17 3 13 -4 36 -8 51 -9z m148
-41 c7 -8 21 -15 31 -15 18 0 18 -1 -1 -32 -22 -37 -26 -79 -9 -110 6 -11 9
-21 7 -23 -2 -1 -30 3 -63 9 -51 11 -62 11 -71 -2 -9 -12 -14 -7 -28 29 -15
37 -16 49 -5 86 9 33 16 43 33 43 11 1 32 7 46 15 32 18 45 18 60 0z m-153
-80 c-2 -47 -4 -53 -14 -38 -16 20 -16 34 -3 67 15 39 19 32 17 -29z m394 -68
c-8 -8 -11 7 -10 54 l1 64 10 -54 c7 -37 7 -56 -1 -64z m488 95 c7 -14 5 -21
-10 -30 -26 -17 -29 -15 -29 11 0 39 22 50 39 19z m-462 -69 c-2 -16 -4 -5 -4
22 0 28 2 40 4 28 2 -13 2 -35 0 -50z m103 22 c0 -2 -9 -9 -20 -15 -12 -6 -20
-7 -20 -1 0 5 8 12 18 14 9 3 18 5 20 6 1 0 2 -1 2 -4z m-650 -75 c0 -5 -2
-10 -4 -10 -3 0 -8 5 -11 10 -3 6 -1 10 4 10 6 0 11 -4 11 -10z m128 -7 c12
-3 22 -11 22 -18 0 -9 -12 -7 -40 7 -39 20 -57 37 -22 23 9 -4 27 -10 40 -12z
m342 -57 c0 -73 -6 -88 -37 -92 -9 -2 -10 3 -3 16 6 10 10 48 10 84 0 52 3 66
15 66 12 0 15 -15 15 -74z m90 54 c0 -11 -4 -20 -9 -20 -5 0 -16 -3 -25 -6
-11 -4 -16 0 -16 13 0 24 8 33 32 33 11 0 18 -7 18 -20z m55 10 c-3 -5 -14
-10 -23 -10 -15 0 -15 2 -2 10 20 13 33 13 25 0z m-234 -97 c2 -71 -9 -103
-35 -103 -18 0 -14 169 5 180 22 14 28 0 30 -77z m-242 -7 c7 -27 7 -44 0 -55
-9 -14 -10 -14 -5 1 3 10 -1 39 -9 64 -8 26 -10 43 -5 38 4 -5 13 -27 19 -48z
m59 -7 c7 -27 6 -42 -5 -60 -14 -24 -14 -24 -9 -1 2 12 0 38 -5 57 -6 20 -7
41 -3 47 4 7 9 8 10 3 2 -6 7 -26 12 -46z m255 -133 c24 -39 29 -59 31 -116 1
-50 -3 -73 -14 -83 -18 -18 -76 -38 -84 -30 -3 4 -6 34 -6 68 0 47 -6 73 -25
109 -14 26 -22 52 -19 58 9 15 68 48 79 45 5 -2 22 -25 38 -51z m276 -76 l-1
-25 -7 26 c-5 14 -14 36 -20 50 l-12 24 20 -25 c11 -14 20 -36 20 -50z m-52
28 c30 -11 47 -38 23 -38 -18 0 -70 30 -70 40 0 13 7 13 47 -2z m-537 -72 c0
-3 -13 -14 -29 -26 -21 -14 -32 -17 -37 -9 -4 7 -3 9 2 6 5 -3 21 3 34 14 27
20 30 22 30 15z m-90 -16 c8 -5 11 -10 5 -10 -5 0 -17 5 -25 10 -8 5 -10 10
-5 10 6 0 17 -5 25 -10z"/>
<path d="M630 1411 c-23 -44 -1 -181 30 -181 24 0 36 13 48 49 17 47 15 102
-4 129 -19 27 -60 29 -74 3z"/>
<path d="M632 1118 c-15 -15 -16 -149 -1 -201 8 -31 14 -38 32 -35 34 5 57 62
57 141 0 38 -5 77 -10 88 -12 22 -59 26 -78 7z"/>
<path d="M1182 1295 c-7 -33 -19 -85 -27 -115 -10 -35 -13 -72 -9 -102 7 -48
7 -48 44 -48 37 0 38 1 45 46 4 30 1 72 -9 118 -9 39 -20 91 -24 116 l-8 45
-12 -60z"/>
<path d="M1767 1015 c-4 -24 -2 -55 3 -67 7 -17 9 -7 9 45 1 37 -1 67 -3 67
-2 0 -6 -20 -9 -45z"/>
<path d="M1078 223 c-10 -2 -18 -9 -18 -14 0 -13 13 -11 36 6 19 14 14 17 -18
8z"/>
<path d="M1051 2295 c14 -14 19 -14 50 -1 l34 15 -50 1 c-44 0 -48 -2 -34 -15z"/>
<path d="M387 2144 c3 -8 11 -14 19 -14 21 0 17 17 -5 23 -14 3 -18 1 -14 -9z"/>
<path d="M390 2055 c0 -54 25 -64 33 -12 5 39 0 57 -19 57 -10 0 -14 -13 -14
-45z"/>
<path d="M1823 1720 c0 -25 2 -35 4 -22 2 12 2 32 0 45 -2 12 -4 2 -4 -23z"/>
<path d="M153 1355 c0 -8 4 -15 9 -15 4 0 8 4 8 9 0 6 -4 12 -8 15 -5 3 -9 -1
-9 -9z"/>
<path d="M2183 1198 c-11 -13 -26 -40 -34 -60 -10 -31 -10 -42 1 -62 19 -37
36 -39 74 -6 38 34 52 82 36 124 -12 33 -49 35 -77 4z"/>
<path d="M40 1194 c0 -14 3 -14 15 -4 8 7 15 14 15 16 0 2 -7 4 -15 4 -8 0
-15 -7 -15 -16z"/>
<path d="M110 1136 c25 -13 56 -26 70 -30 14 -3 -2 7 -35 24 -71 34 -100 40
-35 6z"/>
<path d="M240 1123 c0 -14 19 -38 25 -32 8 8 -5 39 -16 39 -5 0 -9 -3 -9 -7z"/>
<path d="M1693 505 c-23 -10 -31 -19 -27 -29 7 -19 15 -20 49 -4 14 6 25 19
25 30 0 21 -5 22 -47 3z"/>
</g>
</svg>
